solid cantilever_beam_100x5x5_cm_closed
  facet normal 0.0 0.0 1.0
    outer loop
      vertex 0.0 0.0 0.0
      vertex 100.0 0.0 0.0
      vertex 100.0 5.0 0.0
    endloop
  endfacet
  facet normal 0.0 0.0 1.0
    outer loop
      vertex 0.0 0.0 0.0
      vertex 100.0 5.0 0.0
      vertex 0.0 5.0 0.0
    endloop
  endfacet
  facet normal 0.0 0.0 -1.0
    outer loop
      vertex 0.0 0.0 5.0
      vertex 100.0 5.0 5.0
      vertex 100.0 0.0 5.0
    endloop
  endfacet
  facet normal 0.0 0.0 -1.0
    outer loop
      vertex 0.0 0.0 5.0
      vertex 0.0 5.0 5.0
      vertex 100.0 5.0 5.0
    endloop
  endfacet
  facet normal 0.0 1.0 0.0
    outer loop
      vertex 0.0 0.0 0.0
      vertex 0.0 0.0 5.0
      vertex 100.0 0.0 5.0
    endloop
  endfacet
  facet normal 0.0 1.0 0.0
    outer loop
      vertex 0.0 0.0 0.0
      vertex 100.0 0.0 5.0
      vertex 100.0 0.0 0.0
    endloop
  endfacet
  facet normal 0.0 -1.0 0.0
    outer loop
      vertex 0.0 5.0 0.0
      vertex 100.0 5.0 0.0
      vertex 100.0 5.0 5.0
    endloop
  endfacet
  facet normal 0.0 -1.0 0.0
    outer loop
      vertex 0.0 5.0 0.0
      vertex 100.0 5.0 5.0
      vertex 0.0 5.0 5.0
    endloop
  endfacet
  facet normal 1.0 0.0 0.0
    outer loop
      vertex 0.0 0.0 0.0
      vertex 0.0 5.0 0.0
      vertex 0.0 5.0 5.0
    endloop
  endfacet
  facet normal 1.0 0.0 0.0
    outer loop
      vertex 0.0 0.0 0.0
      vertex 0.0 5.0 5.0
      vertex 0.0 0.0 5.0
    endloop
  endfacet
  facet normal -1.0 0.0 0.0
    outer loop
      vertex 100.0 0.0 0.0
      vertex 100.0 0.0 5.0
      vertex 100.0 5.0 5.0
    endloop
  endfacet
  facet normal -1.0 0.0 0.0
    outer loop
      vertex 100.0 0.0 0.0
      vertex 100.0 5.0 5.0
      vertex 100.0 5.0 0.0
    endloop
  endfacet
endsolid cantilever_beam_100x5x5_cm_closed
