solid Visualization Toolkit generated SLA File
 facet normal 0 -0 1
  outer loop
   vertex 0 0 0
   vertex 25 0 0
   vertex 25 1.25 0
  endloop
 endfacet
 facet normal 0 -0 1
  outer loop
   vertex 25 0 0
   vertex 50 0 0
   vertex 50 1.25 0
  endloop
 endfacet
 facet normal 0 0 1
  outer loop
   vertex 50 1.25 0
   vertex 50 2.5 0
   vertex 25 1.25 0
  endloop
 endfacet
 facet normal 0 0 1
  outer loop
   vertex 25 0 0
   vertex 50 1.25 0
   vertex 25 1.25 0
  endloop
 endfacet
 facet normal 0 -0 1
  outer loop
   vertex 50 0 0
   vertex 75 0 0
   vertex 75 1.25 0
  endloop
 endfacet
 facet normal 0 -0 1
  outer loop
   vertex 75 0 0
   vertex 100 0 0
   vertex 100 1.25 0
  endloop
 endfacet
 facet normal 0 0 1
  outer loop
   vertex 100 1.25 0
   vertex 100 2.5 0
   vertex 75 1.25 0
  endloop
 endfacet
 facet normal 0 0 1
  outer loop
   vertex 75 0 0
   vertex 100 1.25 0
   vertex 75 1.25 0
  endloop
 endfacet
 facet normal 0 0 1
  outer loop
   vertex 100 2.5 0
   vertex 100 3.75 0
   vertex 75 2.5 0
  endloop
 endfacet
 facet normal 0 0 1
  outer loop
   vertex 100 3.75 0
   vertex 100 5 0
   vertex 75 3.75 0
  endloop
 endfacet
 facet normal 0 0 1
  outer loop
   vertex 75 3.75 0
   vertex 50 2.5 0
   vertex 75 2.5 0
  endloop
 endfacet
 facet normal -0 0 1
  outer loop
   vertex 100 3.75 0
   vertex 75 3.75 0
   vertex 75 2.5 0
  endloop
 endfacet
 facet normal 0 0 1
  outer loop
   vertex 50 0 0
   vertex 75 1.25 0
   vertex 50 1.25 0
  endloop
 endfacet
 facet normal 0 0 1
  outer loop
   vertex 75 1.25 0
   vertex 100 2.5 0
   vertex 75 2.5 0
  endloop
 endfacet
 facet normal -0 0 1
  outer loop
   vertex 75 2.5 0
   vertex 50 2.5 0
   vertex 50 1.25 0
  endloop
 endfacet
 facet normal 0 0 1
  outer loop
   vertex 75 1.25 0
   vertex 75 2.5 0
   vertex 50 1.25 0
  endloop
 endfacet
 facet normal 0 0 1
  outer loop
   vertex 0 0 0
   vertex 25 1.25 0
   vertex 0 1.25 0
  endloop
 endfacet
 facet normal 0 0 1
  outer loop
   vertex 25 1.25 0
   vertex 50 2.5 0
   vertex 25 2.5 0
  endloop
 endfacet
 facet normal -0 0 1
  outer loop
   vertex 25 2.5 0
   vertex 0 2.5 0
   vertex 0 1.25 0
  endloop
 endfacet
 facet normal 0 0 1
  outer loop
   vertex 25 1.25 0
   vertex 25 2.5 0
   vertex 0 1.25 0
  endloop
 endfacet
 facet normal 0 0 1
  outer loop
   vertex 50 2.5 0
   vertex 75 3.75 0
   vertex 50 3.75 0
  endloop
 endfacet
 facet normal 0 0 1
  outer loop
   vertex 75 3.75 0
   vertex 100 5 0
   vertex 75 5 0
  endloop
 endfacet
 facet normal -0 0 1
  outer loop
   vertex 75 5 0
   vertex 50 5 0
   vertex 50 3.75 0
  endloop
 endfacet
 facet normal 0 0 1
  outer loop
   vertex 75 3.75 0
   vertex 75 5 0
   vertex 50 3.75 0
  endloop
 endfacet
 facet normal -0 0 1
  outer loop
   vertex 50 5 0
   vertex 25 5 0
   vertex 25 3.75 0
  endloop
 endfacet
 facet normal -0 0 1
  outer loop
   vertex 25 5 0
   vertex 0 5 0
   vertex 0 3.75 0
  endloop
 endfacet
 facet normal 0 0 1
  outer loop
   vertex 0 3.75 0
   vertex 0 2.5 0
   vertex 25 3.75 0
  endloop
 endfacet
 facet normal 0 0 1
  outer loop
   vertex 25 5 0
   vertex 0 3.75 0
   vertex 25 3.75 0
  endloop
 endfacet
 facet normal 0 0 1
  outer loop
   vertex 50 2.5 0
   vertex 50 3.75 0
   vertex 25 2.5 0
  endloop
 endfacet
 facet normal 0 0 1
  outer loop
   vertex 50 3.75 0
   vertex 50 5 0
   vertex 25 3.75 0
  endloop
 endfacet
 facet normal 0 0 1
  outer loop
   vertex 25 3.75 0
   vertex 0 2.5 0
   vertex 25 2.5 0
  endloop
 endfacet
 facet normal -0 0 1
  outer loop
   vertex 50 3.75 0
   vertex 25 3.75 0
   vertex 25 2.5 0
  endloop
 endfacet
 facet normal 0 -0 -1
  outer loop
   vertex 0 0 5
   vertex 25 1.25 5
   vertex 25 0 5
  endloop
 endfacet
 facet normal 0 -0 -1
  outer loop
   vertex 25 1.25 5
   vertex 50 2.5 5
   vertex 50 1.25 5
  endloop
 endfacet
 facet normal 0 0 -1
  outer loop
   vertex 50 1.25 5
   vertex 50 0 5
   vertex 25 0 5
  endloop
 endfacet
 facet normal -0 0 -1
  outer loop
   vertex 25 1.25 5
   vertex 50 1.25 5
   vertex 25 0 5
  endloop
 endfacet
 facet normal 0 -0 -1
  outer loop
   vertex 50 2.5 5
   vertex 75 3.75 5
   vertex 75 2.5 5
  endloop
 endfacet
 facet normal 0 -0 -1
  outer loop
   vertex 75 3.75 5
   vertex 100 5 5
   vertex 100 3.75 5
  endloop
 endfacet
 facet normal 0 0 -1
  outer loop
   vertex 100 3.75 5
   vertex 100 2.5 5
   vertex 75 2.5 5
  endloop
 endfacet
 facet normal -0 0 -1
  outer loop
   vertex 75 3.75 5
   vertex 100 3.75 5
   vertex 75 2.5 5
  endloop
 endfacet
 facet normal 0 0 -1
  outer loop
   vertex 100 2.5 5
   vertex 100 1.25 5
   vertex 75 1.25 5
  endloop
 endfacet
 facet normal 0 0 -1
  outer loop
   vertex 100 1.25 5
   vertex 100 0 5
   vertex 75 0 5
  endloop
 endfacet
 facet normal 0 0 -1
  outer loop
   vertex 75 0 5
   vertex 50 0 5
   vertex 75 1.25 5
  endloop
 endfacet
 facet normal 0 0 -1
  outer loop
   vertex 100 1.25 5
   vertex 75 0 5
   vertex 75 1.25 5
  endloop
 endfacet
 facet normal -0 0 -1
  outer loop
   vertex 50 2.5 5
   vertex 75 2.5 5
   vertex 50 1.25 5
  endloop
 endfacet
 facet normal -0 0 -1
  outer loop
   vertex 75 2.5 5
   vertex 100 2.5 5
   vertex 75 1.25 5
  endloop
 endfacet
 facet normal 0 0 -1
  outer loop
   vertex 75 1.25 5
   vertex 50 0 5
   vertex 50 1.25 5
  endloop
 endfacet
 facet normal 0 0 -1
  outer loop
   vertex 75 2.5 5
   vertex 75 1.25 5
   vertex 50 1.25 5
  endloop
 endfacet
 facet normal 0 0 -1
  outer loop
   vertex 0 0 5
   vertex 0 1.25 5
   vertex 25 1.25 5
  endloop
 endfacet
 facet normal 0 0 -1
  outer loop
   vertex 0 1.25 5
   vertex 0 2.5 5
   vertex 25 2.5 5
  endloop
 endfacet
 facet normal -0 0 -1
  outer loop
   vertex 25 2.5 5
   vertex 50 2.5 5
   vertex 25 1.25 5
  endloop
 endfacet
 facet normal 0 -0 -1
  outer loop
   vertex 0 1.25 5
   vertex 25 2.5 5
   vertex 25 1.25 5
  endloop
 endfacet
 facet normal 0 0 -1
  outer loop
   vertex 0 2.5 5
   vertex 0 3.75 5
   vertex 25 3.75 5
  endloop
 endfacet
 facet normal 0 0 -1
  outer loop
   vertex 0 3.75 5
   vertex 0 5 5
   vertex 25 5 5
  endloop
 endfacet
 facet normal -0 0 -1
  outer loop
   vertex 25 5 5
   vertex 50 5 5
   vertex 25 3.75 5
  endloop
 endfacet
 facet normal 0 -0 -1
  outer loop
   vertex 0 3.75 5
   vertex 25 5 5
   vertex 25 3.75 5
  endloop
 endfacet
 facet normal -0 0 -1
  outer loop
   vertex 50 5 5
   vertex 75 5 5
   vertex 50 3.75 5
  endloop
 endfacet
 facet normal -0 0 -1
  outer loop
   vertex 75 5 5
   vertex 100 5 5
   vertex 75 3.75 5
  endloop
 endfacet
 facet normal 0 0 -1
  outer loop
   vertex 75 3.75 5
   vertex 50 2.5 5
   vertex 50 3.75 5
  endloop
 endfacet
 facet normal 0 0 -1
  outer loop
   vertex 75 5 5
   vertex 75 3.75 5
   vertex 50 3.75 5
  endloop
 endfacet
 facet normal 0 -0 -1
  outer loop
   vertex 0 2.5 5
   vertex 25 3.75 5
   vertex 25 2.5 5
  endloop
 endfacet
 facet normal 0 -0 -1
  outer loop
   vertex 25 3.75 5
   vertex 50 5 5
   vertex 50 3.75 5
  endloop
 endfacet
 facet normal 0 0 -1
  outer loop
   vertex 50 3.75 5
   vertex 50 2.5 5
   vertex 25 2.5 5
  endloop
 endfacet
 facet normal -0 0 -1
  outer loop
   vertex 25 3.75 5
   vertex 50 3.75 5
   vertex 25 2.5 5
  endloop
 endfacet
 facet normal -0 1 0
  outer loop
   vertex 0 0 0
   vertex 0 0 1.25
   vertex 25 0 1.25
  endloop
 endfacet
 facet normal -0 1 0
  outer loop
   vertex 0 0 1.25
   vertex 0 0 2.5
   vertex 25 0 2.5
  endloop
 endfacet
 facet normal 0 1 0
  outer loop
   vertex 25 0 2.5
   vertex 50 0 2.5
   vertex 25 0 1.25
  endloop
 endfacet
 facet normal 0 1 0
  outer loop
   vertex 0 0 1.25
   vertex 25 0 2.5
   vertex 25 0 1.25
  endloop
 endfacet
 facet normal -0 1 0
  outer loop
   vertex 0 0 2.5
   vertex 0 0 3.75
   vertex 25 0 3.75
  endloop
 endfacet
 facet normal -0 1 0
  outer loop
   vertex 0 0 3.75
   vertex 0 0 5
   vertex 25 0 5
  endloop
 endfacet
 facet normal 0 1 0
  outer loop
   vertex 25 0 5
   vertex 50 0 5
   vertex 25 0 3.75
  endloop
 endfacet
 facet normal 0 1 0
  outer loop
   vertex 0 0 3.75
   vertex 25 0 5
   vertex 25 0 3.75
  endloop
 endfacet
 facet normal 0 1 0
  outer loop
   vertex 50 0 5
   vertex 75 0 5
   vertex 50 0 3.75
  endloop
 endfacet
 facet normal 0 1 0
  outer loop
   vertex 75 0 5
   vertex 100 0 5
   vertex 75 0 3.75
  endloop
 endfacet
 facet normal 0 1 0
  outer loop
   vertex 75 0 3.75
   vertex 50 0 2.5
   vertex 50 0 3.75
  endloop
 endfacet
 facet normal 0 1 -0
  outer loop
   vertex 75 0 5
   vertex 75 0 3.75
   vertex 50 0 3.75
  endloop
 endfacet
 facet normal 0 1 0
  outer loop
   vertex 0 0 2.5
   vertex 25 0 3.75
   vertex 25 0 2.5
  endloop
 endfacet
 facet normal 0 1 0
  outer loop
   vertex 25 0 3.75
   vertex 50 0 5
   vertex 50 0 3.75
  endloop
 endfacet
 facet normal 0 1 -0
  outer loop
   vertex 50 0 3.75
   vertex 50 0 2.5
   vertex 25 0 2.5
  endloop
 endfacet
 facet normal 0 1 0
  outer loop
   vertex 25 0 3.75
   vertex 50 0 3.75
   vertex 25 0 2.5
  endloop
 endfacet
 facet normal 0 1 0
  outer loop
   vertex 0 0 0
   vertex 25 0 1.25
   vertex 25 0 0
  endloop
 endfacet
 facet normal 0 1 0
  outer loop
   vertex 25 0 1.25
   vertex 50 0 2.5
   vertex 50 0 1.25
  endloop
 endfacet
 facet normal 0 1 -0
  outer loop
   vertex 50 0 1.25
   vertex 50 0 0
   vertex 25 0 0
  endloop
 endfacet
 facet normal 0 1 0
  outer loop
   vertex 25 0 1.25
   vertex 50 0 1.25
   vertex 25 0 0
  endloop
 endfacet
 facet normal 0 1 0
  outer loop
   vertex 50 0 2.5
   vertex 75 0 3.75
   vertex 75 0 2.5
  endloop
 endfacet
 facet normal 0 1 0
  outer loop
   vertex 75 0 3.75
   vertex 100 0 5
   vertex 100 0 3.75
  endloop
 endfacet
 facet normal 0 1 -0
  outer loop
   vertex 100 0 3.75
   vertex 100 0 2.5
   vertex 75 0 2.5
  endloop
 endfacet
 facet normal 0 1 0
  outer loop
   vertex 75 0 3.75
   vertex 100 0 3.75
   vertex 75 0 2.5
  endloop
 endfacet
 facet normal 0 1 -0
  outer loop
   vertex 100 0 2.5
   vertex 100 0 1.25
   vertex 75 0 1.25
  endloop
 endfacet
 facet normal 0 1 -0
  outer loop
   vertex 100 0 1.25
   vertex 100 0 0
   vertex 75 0 0
  endloop
 endfacet
 facet normal 0 1 0
  outer loop
   vertex 75 0 0
   vertex 50 0 0
   vertex 75 0 1.25
  endloop
 endfacet
 facet normal 0 1 0
  outer loop
   vertex 100 0 1.25
   vertex 75 0 0
   vertex 75 0 1.25
  endloop
 endfacet
 facet normal 0 1 0
  outer loop
   vertex 50 0 2.5
   vertex 75 0 2.5
   vertex 50 0 1.25
  endloop
 endfacet
 facet normal 0 1 0
  outer loop
   vertex 75 0 2.5
   vertex 100 0 2.5
   vertex 75 0 1.25
  endloop
 endfacet
 facet normal 0 1 0
  outer loop
   vertex 75 0 1.25
   vertex 50 0 0
   vertex 50 0 1.25
  endloop
 endfacet
 facet normal 0 1 -0
  outer loop
   vertex 75 0 2.5
   vertex 75 0 1.25
   vertex 50 0 1.25
  endloop
 endfacet
 facet normal 0 -1 0
  outer loop
   vertex 0 5 0
   vertex 25 5 0
   vertex 25 5 1.25
  endloop
 endfacet
 facet normal 0 -1 0
  outer loop
   vertex 25 5 0
   vertex 50 5 0
   vertex 50 5 1.25
  endloop
 endfacet
 facet normal 0 -1 -0
  outer loop
   vertex 50 5 1.25
   vertex 50 5 2.5
   vertex 25 5 1.25
  endloop
 endfacet
 facet normal -0 -1 0
  outer loop
   vertex 25 5 0
   vertex 50 5 1.25
   vertex 25 5 1.25
  endloop
 endfacet
 facet normal 0 -1 0
  outer loop
   vertex 50 5 0
   vertex 75 5 0
   vertex 75 5 1.25
  endloop
 endfacet
 facet normal 0 -1 0
  outer loop
   vertex 75 5 0
   vertex 100 5 0
   vertex 100 5 1.25
  endloop
 endfacet
 facet normal 0 -1 -0
  outer loop
   vertex 100 5 1.25
   vertex 100 5 2.5
   vertex 75 5 1.25
  endloop
 endfacet
 facet normal -0 -1 0
  outer loop
   vertex 75 5 0
   vertex 100 5 1.25
   vertex 75 5 1.25
  endloop
 endfacet
 facet normal 0 -1 -0
  outer loop
   vertex 100 5 2.5
   vertex 100 5 3.75
   vertex 75 5 2.5
  endloop
 endfacet
 facet normal 0 -1 -0
  outer loop
   vertex 100 5 3.75
   vertex 100 5 5
   vertex 75 5 3.75
  endloop
 endfacet
 facet normal 0 -1 0
  outer loop
   vertex 75 5 3.75
   vertex 50 5 2.5
   vertex 75 5 2.5
  endloop
 endfacet
 facet normal 0 -1 0
  outer loop
   vertex 100 5 3.75
   vertex 75 5 3.75
   vertex 75 5 2.5
  endloop
 endfacet
 facet normal -0 -1 0
  outer loop
   vertex 50 5 0
   vertex 75 5 1.25
   vertex 50 5 1.25
  endloop
 endfacet
 facet normal -0 -1 0
  outer loop
   vertex 75 5 1.25
   vertex 100 5 2.5
   vertex 75 5 2.5
  endloop
 endfacet
 facet normal 0 -1 0
  outer loop
   vertex 75 5 2.5
   vertex 50 5 2.5
   vertex 50 5 1.25
  endloop
 endfacet
 facet normal 0 -1 -0
  outer loop
   vertex 75 5 1.25
   vertex 75 5 2.5
   vertex 50 5 1.25
  endloop
 endfacet
 facet normal -0 -1 0
  outer loop
   vertex 0 5 0
   vertex 25 5 1.25
   vertex 0 5 1.25
  endloop
 endfacet
 facet normal -0 -1 0
  outer loop
   vertex 25 5 1.25
   vertex 50 5 2.5
   vertex 25 5 2.5
  endloop
 endfacet
 facet normal 0 -1 0
  outer loop
   vertex 25 5 2.5
   vertex 0 5 2.5
   vertex 0 5 1.25
  endloop
 endfacet
 facet normal 0 -1 -0
  outer loop
   vertex 25 5 1.25
   vertex 25 5 2.5
   vertex 0 5 1.25
  endloop
 endfacet
 facet normal -0 -1 0
  outer loop
   vertex 50 5 2.5
   vertex 75 5 3.75
   vertex 50 5 3.75
  endloop
 endfacet
 facet normal -0 -1 0
  outer loop
   vertex 75 5 3.75
   vertex 100 5 5
   vertex 75 5 5
  endloop
 endfacet
 facet normal 0 -1 0
  outer loop
   vertex 75 5 5
   vertex 50 5 5
   vertex 50 5 3.75
  endloop
 endfacet
 facet normal 0 -1 -0
  outer loop
   vertex 75 5 3.75
   vertex 75 5 5
   vertex 50 5 3.75
  endloop
 endfacet
 facet normal 0 -1 0
  outer loop
   vertex 50 5 5
   vertex 25 5 5
   vertex 25 5 3.75
  endloop
 endfacet
 facet normal 0 -1 0
  outer loop
   vertex 25 5 5
   vertex 0 5 5
   vertex 0 5 3.75
  endloop
 endfacet
 facet normal 0 -1 0
  outer loop
   vertex 0 5 3.75
   vertex 0 5 2.5
   vertex 25 5 3.75
  endloop
 endfacet
 facet normal 0 -1 0
  outer loop
   vertex 25 5 5
   vertex 0 5 3.75
   vertex 25 5 3.75
  endloop
 endfacet
 facet normal 0 -1 -0
  outer loop
   vertex 50 5 2.5
   vertex 50 5 3.75
   vertex 25 5 2.5
  endloop
 endfacet
 facet normal 0 -1 -0
  outer loop
   vertex 50 5 3.75
   vertex 50 5 5
   vertex 25 5 3.75
  endloop
 endfacet
 facet normal 0 -1 0
  outer loop
   vertex 25 5 3.75
   vertex 0 5 2.5
   vertex 25 5 2.5
  endloop
 endfacet
 facet normal 0 -1 0
  outer loop
   vertex 50 5 3.75
   vertex 25 5 3.75
   vertex 25 5 2.5
  endloop
 endfacet
 facet normal 1 0 -0
  outer loop
   vertex 0 0 0
   vertex 0 1.25 0
   vertex 0 1.25 1.25
  endloop
 endfacet
 facet normal 1 0 -0
  outer loop
   vertex 0 1.25 0
   vertex 0 2.5 0
   vertex 0 2.5 1.25
  endloop
 endfacet
 facet normal 1 0 0
  outer loop
   vertex 0 2.5 1.25
   vertex 0 2.5 2.5
   vertex 0 1.25 1.25
  endloop
 endfacet
 facet normal 1 0 0
  outer loop
   vertex 0 1.25 0
   vertex 0 2.5 1.25
   vertex 0 1.25 1.25
  endloop
 endfacet
 facet normal 1 0 -0
  outer loop
   vertex 0 2.5 0
   vertex 0 3.75 0
   vertex 0 3.75 1.25
  endloop
 endfacet
 facet normal 1 0 -0
  outer loop
   vertex 0 3.75 0
   vertex 0 5 0
   vertex 0 5 1.25
  endloop
 endfacet
 facet normal 1 0 0
  outer loop
   vertex 0 5 1.25
   vertex 0 5 2.5
   vertex 0 3.75 1.25
  endloop
 endfacet
 facet normal 1 0 0
  outer loop
   vertex 0 3.75 0
   vertex 0 5 1.25
   vertex 0 3.75 1.25
  endloop
 endfacet
 facet normal 1 0 0
  outer loop
   vertex 0 5 2.5
   vertex 0 5 3.75
   vertex 0 3.75 2.5
  endloop
 endfacet
 facet normal 1 0 0
  outer loop
   vertex 0 5 3.75
   vertex 0 5 5
   vertex 0 3.75 3.75
  endloop
 endfacet
 facet normal 1 0 0
  outer loop
   vertex 0 3.75 3.75
   vertex 0 2.5 2.5
   vertex 0 3.75 2.5
  endloop
 endfacet
 facet normal 1 -0 0
  outer loop
   vertex 0 5 3.75
   vertex 0 3.75 3.75
   vertex 0 3.75 2.5
  endloop
 endfacet
 facet normal 1 0 0
  outer loop
   vertex 0 2.5 0
   vertex 0 3.75 1.25
   vertex 0 2.5 1.25
  endloop
 endfacet
 facet normal 1 0 0
  outer loop
   vertex 0 3.75 1.25
   vertex 0 5 2.5
   vertex 0 3.75 2.5
  endloop
 endfacet
 facet normal 1 -0 0
  outer loop
   vertex 0 3.75 2.5
   vertex 0 2.5 2.5
   vertex 0 2.5 1.25
  endloop
 endfacet
 facet normal 1 0 0
  outer loop
   vertex 0 3.75 1.25
   vertex 0 3.75 2.5
   vertex 0 2.5 1.25
  endloop
 endfacet
 facet normal 1 0 0
  outer loop
   vertex 0 0 0
   vertex 0 1.25 1.25
   vertex 0 0 1.25
  endloop
 endfacet
 facet normal 1 0 0
  outer loop
   vertex 0 1.25 1.25
   vertex 0 2.5 2.5
   vertex 0 1.25 2.5
  endloop
 endfacet
 facet normal 1 -0 0
  outer loop
   vertex 0 1.25 2.5
   vertex 0 0 2.5
   vertex 0 0 1.25
  endloop
 endfacet
 facet normal 1 0 0
  outer loop
   vertex 0 1.25 1.25
   vertex 0 1.25 2.5
   vertex 0 0 1.25
  endloop
 endfacet
 facet normal 1 0 0
  outer loop
   vertex 0 2.5 2.5
   vertex 0 3.75 3.75
   vertex 0 2.5 3.75
  endloop
 endfacet
 facet normal 1 0 0
  outer loop
   vertex 0 3.75 3.75
   vertex 0 5 5
   vertex 0 3.75 5
  endloop
 endfacet
 facet normal 1 -0 0
  outer loop
   vertex 0 3.75 5
   vertex 0 2.5 5
   vertex 0 2.5 3.75
  endloop
 endfacet
 facet normal 1 0 0
  outer loop
   vertex 0 3.75 3.75
   vertex 0 3.75 5
   vertex 0 2.5 3.75
  endloop
 endfacet
 facet normal 1 -0 0
  outer loop
   vertex 0 2.5 5
   vertex 0 1.25 5
   vertex 0 1.25 3.75
  endloop
 endfacet
 facet normal 1 -0 0
  outer loop
   vertex 0 1.25 5
   vertex 0 0 5
   vertex 0 0 3.75
  endloop
 endfacet
 facet normal 1 0 0
  outer loop
   vertex 0 0 3.75
   vertex 0 0 2.5
   vertex 0 1.25 3.75
  endloop
 endfacet
 facet normal 1 0 0
  outer loop
   vertex 0 1.25 5
   vertex 0 0 3.75
   vertex 0 1.25 3.75
  endloop
 endfacet
 facet normal 1 0 0
  outer loop
   vertex 0 2.5 2.5
   vertex 0 2.5 3.75
   vertex 0 1.25 2.5
  endloop
 endfacet
 facet normal 1 0 0
  outer loop
   vertex 0 2.5 3.75
   vertex 0 2.5 5
   vertex 0 1.25 3.75
  endloop
 endfacet
 facet normal 1 0 0
  outer loop
   vertex 0 1.25 3.75
   vertex 0 0 2.5
   vertex 0 1.25 2.5
  endloop
 endfacet
 facet normal 1 -0 0
  outer loop
   vertex 0 2.5 3.75
   vertex 0 1.25 3.75
   vertex 0 1.25 2.5
  endloop
 endfacet
 facet normal -1 0 0
  outer loop
   vertex 100 0 0
   vertex 100 0 1.25
   vertex 100 1.25 1.25
  endloop
 endfacet
 facet normal -1 0 0
  outer loop
   vertex 100 0 1.25
   vertex 100 0 2.5
   vertex 100 1.25 2.5
  endloop
 endfacet
 facet normal -1 -0 0
  outer loop
   vertex 100 1.25 2.5
   vertex 100 2.5 2.5
   vertex 100 1.25 1.25
  endloop
 endfacet
 facet normal -1 0 -0
  outer loop
   vertex 100 0 1.25
   vertex 100 1.25 2.5
   vertex 100 1.25 1.25
  endloop
 endfacet
 facet normal -1 0 0
  outer loop
   vertex 100 0 2.5
   vertex 100 0 3.75
   vertex 100 1.25 3.75
  endloop
 endfacet
 facet normal -1 0 0
  outer loop
   vertex 100 0 3.75
   vertex 100 0 5
   vertex 100 1.25 5
  endloop
 endfacet
 facet normal -1 -0 0
  outer loop
   vertex 100 1.25 5
   vertex 100 2.5 5
   vertex 100 1.25 3.75
  endloop
 endfacet
 facet normal -1 0 -0
  outer loop
   vertex 100 0 3.75
   vertex 100 1.25 5
   vertex 100 1.25 3.75
  endloop
 endfacet
 facet normal -1 -0 0
  outer loop
   vertex 100 2.5 5
   vertex 100 3.75 5
   vertex 100 2.5 3.75
  endloop
 endfacet
 facet normal -1 -0 0
  outer loop
   vertex 100 3.75 5
   vertex 100 5 5
   vertex 100 3.75 3.75
  endloop
 endfacet
 facet normal -1 0 0
  outer loop
   vertex 100 3.75 3.75
   vertex 100 2.5 2.5
   vertex 100 2.5 3.75
  endloop
 endfacet
 facet normal -1 0 0
  outer loop
   vertex 100 3.75 5
   vertex 100 3.75 3.75
   vertex 100 2.5 3.75
  endloop
 endfacet
 facet normal -1 0 -0
  outer loop
   vertex 100 0 2.5
   vertex 100 1.25 3.75
   vertex 100 1.25 2.5
  endloop
 endfacet
 facet normal -1 0 -0
  outer loop
   vertex 100 1.25 3.75
   vertex 100 2.5 5
   vertex 100 2.5 3.75
  endloop
 endfacet
 facet normal -1 0 0
  outer loop
   vertex 100 2.5 3.75
   vertex 100 2.5 2.5
   vertex 100 1.25 2.5
  endloop
 endfacet
 facet normal -1 -0 0
  outer loop
   vertex 100 1.25 3.75
   vertex 100 2.5 3.75
   vertex 100 1.25 2.5
  endloop
 endfacet
 facet normal -1 0 -0
  outer loop
   vertex 100 0 0
   vertex 100 1.25 1.25
   vertex 100 1.25 0
  endloop
 endfacet
 facet normal -1 0 -0
  outer loop
   vertex 100 1.25 1.25
   vertex 100 2.5 2.5
   vertex 100 2.5 1.25
  endloop
 endfacet
 facet normal -1 0 0
  outer loop
   vertex 100 2.5 1.25
   vertex 100 2.5 0
   vertex 100 1.25 0
  endloop
 endfacet
 facet normal -1 -0 0
  outer loop
   vertex 100 1.25 1.25
   vertex 100 2.5 1.25
   vertex 100 1.25 0
  endloop
 endfacet
 facet normal -1 0 -0
  outer loop
   vertex 100 2.5 2.5
   vertex 100 3.75 3.75
   vertex 100 3.75 2.5
  endloop
 endfacet
 facet normal -1 0 -0
  outer loop
   vertex 100 3.75 3.75
   vertex 100 5 5
   vertex 100 5 3.75
  endloop
 endfacet
 facet normal -1 0 0
  outer loop
   vertex 100 5 3.75
   vertex 100 5 2.5
   vertex 100 3.75 2.5
  endloop
 endfacet
 facet normal -1 -0 0
  outer loop
   vertex 100 3.75 3.75
   vertex 100 5 3.75
   vertex 100 3.75 2.5
  endloop
 endfacet
 facet normal -1 0 0
  outer loop
   vertex 100 5 2.5
   vertex 100 5 1.25
   vertex 100 3.75 1.25
  endloop
 endfacet
 facet normal -1 0 0
  outer loop
   vertex 100 5 1.25
   vertex 100 5 0
   vertex 100 3.75 0
  endloop
 endfacet
 facet normal -1 0 0
  outer loop
   vertex 100 3.75 0
   vertex 100 2.5 0
   vertex 100 3.75 1.25
  endloop
 endfacet
 facet normal -1 0 0
  outer loop
   vertex 100 5 1.25
   vertex 100 3.75 0
   vertex 100 3.75 1.25
  endloop
 endfacet
 facet normal -1 -0 0
  outer loop
   vertex 100 2.5 2.5
   vertex 100 3.75 2.5
   vertex 100 2.5 1.25
  endloop
 endfacet
 facet normal -1 -0 0
  outer loop
   vertex 100 3.75 2.5
   vertex 100 5 2.5
   vertex 100 3.75 1.25
  endloop
 endfacet
 facet normal -1 0 0
  outer loop
   vertex 100 3.75 1.25
   vertex 100 2.5 0
   vertex 100 2.5 1.25
  endloop
 endfacet
 facet normal -1 0 0
  outer loop
   vertex 100 3.75 2.5
   vertex 100 3.75 1.25
   vertex 100 2.5 1.25
  endloop
 endfacet
endsolid
